<svg xmlns="http://www.w3.org/2000/svg" width="21" height="13" viewBox="0 0 21 13"><g><g><g><path d="M10.5 11.405c-4.322 0-8.43-4.121-9.475-5.25C2.067 5.025 6.172.905 10.5.905c5.056 0 8.626 4.115 9.497 5.226-1.006 1.093-5.139 5.274-9.497 5.274zm10.422-5.498C20.757 5.666 16.782.03 10.5.03 5.109.03.305 5.634.103 5.872a.44.44 0 0 0 0 .566c.202.239 5.006 5.842 10.397 5.842 5.39 0 10.194-5.603 10.397-5.842a.438.438 0 0 0 .025-.531z"/></g><g><path d="M10.5 8.775A2.628 2.628 0 0 1 7.875 6.15 2.628 2.628 0 0 1 10.5 3.525a2.628 2.628 0 0 1 2.625 2.625A2.628 2.628 0 0 1 10.5 8.775zm0-6.125C8.57 2.65 7 4.22 7 6.15s1.57 3.5 3.5 3.5S14 8.08 14 6.15s-1.57-3.5-3.5-3.5z"/></g></g></g></svg>